<?xml version="1.0" encoding="UTF-8"?>
<svg xmlns="http://www.w3.org/2000/svg" xmlns:xlink="http://www.w3.org/1999/xlink" width="20px" height="16px" viewBox="0 0 20 16" version="1.1">
<g id="surface1">
<path style=" stroke:none;fill-rule:nonzero;fill:rgb(52.156866%,71.372551%,48.235294%);fill-opacity:1;" d="M 15.5 7 C 13.015625 7 11 9.015625 11 11.5 C 11 13.984375 13.015625 16 15.5 16 C 17.984375 16 20 13.984375 20 11.5 C 20 9.015625 17.984375 7 15.5 7 Z M 16.546875 8.804688 C 16.660156 8.804688 16.773438 8.847656 16.859375 8.929688 L 17.824219 9.898438 C 17.835938 9.910156 17.84375 9.925781 17.851562 9.9375 L 17.882812 9.90625 L 17.882812 9.988281 C 17.984375 10.15625 17.96875 10.375 17.828125 10.519531 L 17.492188 10.851562 L 16.859375 11.484375 C 16.691406 11.65625 16.410156 11.65625 16.242188 11.488281 C 16.070312 11.316406 16.070312 11.035156 16.238281 10.867188 L 16.460938 10.648438 L 13.484375 10.648438 C 13.242188 10.648438 13.046875 10.449219 13.046875 10.210938 C 13.046875 9.96875 13.242188 9.773438 13.484375 9.773438 L 16.460938 9.769531 L 16.242188 9.550781 C 16.070312 9.382812 16.070312 9.101562 16.238281 8.933594 C 16.324219 8.847656 16.4375 8.804688 16.546875 8.804688 Z M 14.449219 11.386719 C 14.5625 11.386719 14.675781 11.429688 14.757812 11.511719 C 14.929688 11.683594 14.929688 11.964844 14.761719 12.132812 L 14.539062 12.351562 L 17.515625 12.351562 C 17.757812 12.351562 17.953125 12.550781 17.953125 12.789062 C 17.953125 13.03125 17.757812 13.226562 17.515625 13.226562 L 14.539062 13.230469 L 14.757812 13.449219 C 14.929688 13.617188 14.929688 13.898438 14.761719 14.066406 C 14.59375 14.238281 14.3125 14.238281 14.140625 14.070312 L 14.085938 14.011719 L 13.175781 13.101562 C 13.003906 12.929688 13.003906 12.652344 13.171875 12.480469 L 14.140625 11.515625 C 14.226562 11.429688 14.335938 11.386719 14.449219 11.386719 Z M 14.449219 11.386719 "/>
<path style=" stroke:none;fill-rule:nonzero;fill:rgb(45.882353%,56.470591%,65.098041%);fill-opacity:1;" d="M 8 0 C 6.617188 0 5.238281 0.359375 4 1.070312 C 1.523438 2.5 0 5.140625 0 8 C 0 10.859375 1.523438 13.5 4 14.925781 C 6.296875 16.25 9.085938 16.347656 11.449219 15.214844 C 11.105469 14.839844 10.816406 14.421875 10.585938 13.960938 C 8.710938 14.773438 6.542969 14.664062 4.75 13.628906 C 2.738281 12.46875 1.5 10.320312 1.5 8 C 1.5 5.679688 2.738281 3.535156 4.75 2.371094 C 6.761719 1.210938 9.238281 1.210938 11.25 2.371094 C 12.710938 3.210938 13.761719 4.574219 14.230469 6.148438 C 14.636719 6.050781 15.0625 6 15.5 6 C 15.582031 6 15.664062 6.003906 15.746094 6.007812 C 15.21875 3.949219 13.882812 2.160156 12 1.070312 C 10.761719 0.359375 9.382812 0 8 0 Z M 8.496094 4 C 6.816406 4 5.371094 5.035156 4.773438 6.5 L 4 6.5 C 3.726562 6.5 3.5 6.726562 3.5 7 C 3.5 7.273438 3.726562 7.5 4 7.5 L 4.507812 7.5 C 4.484375 7.671875 4.472656 7.847656 4.472656 8.023438 C 4.472656 8.183594 4.480469 8.34375 4.5 8.5 L 4 8.5 C 3.726562 8.5 3.5 8.726562 3.5 9 C 3.5 9.273438 3.726562 9.5 4 9.5 L 4.753906 9.5 C 5.339844 10.992188 6.796875 12.046875 8.496094 12.046875 L 9.78125 12.046875 C 9.867188 12.046875 9.945312 12.03125 10.023438 12.007812 C 10.007812 11.839844 10 11.671875 10 11.5 C 10 11.195312 10.023438 10.898438 10.070312 10.605469 C 9.984375 10.570312 9.882812 10.546875 9.78125 10.546875 L 8.496094 10.546875 C 7.652344 10.546875 6.910156 10.132812 6.449219 9.5 L 9 9.5 C 9.273438 9.5 9.5 9.273438 9.5 9 C 9.5 8.726562 9.273438 8.5 9 8.5 L 6.019531 8.5 C 5.992188 8.347656 5.976562 8.1875 5.976562 8.023438 C 5.976562 7.84375 5.992188 7.667969 6.027344 7.5 L 9 7.5 C 9.273438 7.5 9.5 7.273438 9.5 7 C 9.5 6.726562 9.273438 6.5 9 6.5 L 6.484375 6.5 C 6.945312 5.894531 7.675781 5.5 8.496094 5.5 L 9.78125 5.5 C 10.195312 5.5 10.53125 5.164062 10.53125 4.75 C 10.53125 4.335938 10.195312 4 9.78125 4 Z M 8.496094 4 "/>
</g>
</svg>
