<?xml version="1.0" encoding="UTF-8" standalone="no"?>
<svg
   width="20px"
   height="16px"
   viewBox="0 0 20 16"
   version="1.1"
   id="svg1"
   sodipodi:docname="ValorizzaPrezzo.svg"
   inkscape:version="1.3 (0e150ed6c4, 2023-07-21)"
   xmlns:inkscape="http://www.inkscape.org/namespaces/inkscape"
   xmlns:sodipodi="http://sodipodi.sourceforge.net/DTD/sodipodi-0.dtd"
   xmlns="http://www.w3.org/2000/svg"
   xmlns:svg="http://www.w3.org/2000/svg">
  <defs
     id="defs1" />
  <sodipodi:namedview
     id="namedview1"
     pagecolor="#ffffff"
     bordercolor="#000000"
     borderopacity="0.25"
     inkscape:showpageshadow="2"
     inkscape:pageopacity="0.0"
     inkscape:pagecheckerboard="0"
     inkscape:deskcolor="#d1d1d1"
     inkscape:zoom="45.679098"
     inkscape:cx="8.6253892"
     inkscape:cy="8.4393085"
     inkscape:window-width="2400"
     inkscape:window-height="1261"
     inkscape:window-x="2391"
     inkscape:window-y="-9"
     inkscape:window-maximized="1"
     inkscape:current-layer="svg1" />
  <path
     id="path6"
     style="stroke:none;fill-rule:nonzero;fill:#85b67b;fill-opacity:1"
     d="M 15.5 7 C 13.015627 7 11 9.0156275 11 11.5 C 11 13.984373 13.015627 16 15.5 16 C 17.984373 16 20 13.984373 20 11.5 C 20 9.0156275 17.984373 7 15.5 7 z M 15.5 8.4921875 C 15.773438 8.4921875 16 8.7187498 16 8.9921875 L 16 9.2890625 C 16.195312 9.3203125 16.382812 9.3593748 16.558594 9.4023438 C 16.828124 9.4687497 16.992178 9.7421898 16.925781 10.007812 C 16.859375 10.27734 16.585938 10.44141 16.320312 10.375 C 16.027345 10.304684 15.749999 10.249994 15.492188 10.246094 C 15.300781 10.242188 15.070312 10.289064 14.910156 10.371094 C 14.835934 10.414062 14.796874 10.449223 14.777344 10.476562 C 14.761704 10.496094 14.750006 10.527344 14.753906 10.589844 C 14.753906 10.605469 14.753906 10.648439 14.902344 10.730469 C 15.078125 10.824219 15.324219 10.898441 15.648438 10.988281 L 15.65625 10.988281 C 15.945312 11.070312 16.316406 11.171875 16.609375 11.347656 C 16.929688 11.535156 17.23437 11.851562 17.25 12.355469 C 17.269531 12.92578 16.949219 13.304689 16.570312 13.507812 C 16.390626 13.605465 16.195312 13.667965 16 13.703125 L 16 14.039062 C 16 14.316406 15.773438 14.539062 15.5 14.539062 C 15.226562 14.539062 15 14.316406 15 14.039062 L 15 13.683594 C 14.730469 13.632812 14.480469 13.550782 14.257812 13.476562 C 14.207032 13.460943 14.152342 13.445307 14.101562 13.429688 C 13.839849 13.347656 13.695308 13.066405 13.773438 12.804688 C 13.855468 12.539062 14.136719 12.394533 14.398438 12.476562 C 14.460937 12.492192 14.523441 12.51172 14.582031 12.53125 C 14.9375 12.648438 15.21875 12.734388 15.515625 12.742188 C 15.726562 12.749999 15.945312 12.710942 16.09375 12.632812 C 16.16406 12.593755 16.19922 12.558594 16.21875 12.527344 C 16.23437 12.503906 16.2539 12.460939 16.25 12.386719 C 16.25 12.34375 16.242188 12.296877 16.101562 12.210938 C 15.937501 12.117188 15.699219 12.042965 15.378906 11.953125 C 15.359376 11.945295 15.339842 11.9453 15.320312 11.9375 C 15.04297 11.859375 14.703124 11.761718 14.429688 11.617188 C 14.117188 11.445312 13.785156 11.156249 13.753906 10.65625 L 13.757812 10.648438 C 13.718751 10.0625 14.070312 9.6835941 14.4375 9.4882812 C 14.617188 9.3906253 14.808594 9.3281255 15 9.2890625 L 15 8.9921875 C 15 8.7187498 15.226562 8.4921875 15.5 8.4921875 z " />
  <path
     id="path5"
     style="stroke:none;fill-rule:nonzero;fill:#7590a6;fill-opacity:1"
     d="M 8 0 C 7.5859384 0 7.25 0.33593841 7.25 0.75 L 7.25 7.25 L 0.75 7.25 C 0.33593841 7.25 0 7.5859384 0 8 C 0 8.4140616 0.33593841 8.75 0.75 8.75 L 7.25 8.75 L 7.25 15.25 C 7.25 15.664062 7.5859384 16 8 16 C 8.4140616 16 8.75 15.664062 8.75 15.25 L 8.75 8.75 L 10.738281 8.75 C 11.070312 8.1757816 11.500001 7.6679686 12.007812 7.25 L 8.75 7.25 L 8.75 0.75 C 8.75 0.33593841 8.4140616 0 8 0 z M 12.5 1 C 12.085938 1 11.75 1.3359384 11.75 1.75 L 11.75 2.75 L 10.75 2.75 C 10.335938 2.75 10 3.0859384 10 3.5 C 10 3.9140616 10.335938 4.25 10.75 4.25 L 11.75 4.25 L 11.75 5.25 C 11.75 5.6640616 12.085938 6 12.5 6 C 12.914062 6 13.25 5.6640616 13.25 5.25 L 13.25 4.25 L 14.25 4.25 C 14.664062 4.25 15 3.9140616 15 3.5 C 15 3.0859384 14.664062 2.75 14.25 2.75 L 13.25 2.75 L 13.25 1.75 C 13.25 1.3359384 12.914062 1 12.5 1 z M 2 2.75 C 1.5859384 2.75 1.25 3.0859384 1.25 3.5 C 1.25 3.9140616 1.5859384 4.25 2 4.25 L 5 4.25 C 5.4140616 4.25 5.75 3.9140616 5.75 3.5 C 5.75 3.0859384 5.4140616 2.75 5 2.75 L 2 2.75 z M 2.2617188 10.511719 C 2.0698246 10.511719 1.8769531 10.583984 1.7304688 10.730469 L 1.7304688 10.734375 C 1.4375 11.023438 1.4375 11.5 1.7304688 11.792969 L 2.4414062 12.5 L 1.734375 13.210938 C 1.4414063 13.499999 1.4453123 13.976563 1.734375 14.269531 C 2.0234377 14.5625 2.5 14.5625 2.7929688 14.269531 L 3.5 13.558594 L 4.2070312 14.265625 C 4.496094 14.558594 4.9726563 14.554688 5.265625 14.265625 C 5.5585937 13.976562 5.5585937 13.5 5.265625 13.207031 L 4.5585938 12.5 L 5.265625 11.792969 C 5.5585937 11.503906 5.5546877 11.027344 5.265625 10.734375 C 4.9765623 10.441406 4.5 10.441406 4.2070312 10.734375 L 3.5 11.441406 L 2.7890625 10.730469 C 2.6445316 10.583984 2.4536129 10.511719 2.2617188 10.511719 z M 10.335938 13.398438 C 10.281248 13.503905 10.25 13.621094 10.25 13.75 C 10.25 14.128906 10.523437 14.4375 10.882812 14.492188 C 10.664063 14.148438 10.480468 13.785155 10.335938 13.398438 z " />
</svg>
